HIERARCHY
ROOT hip
{
  OFFSET 0.0 0.0 0.0
  CHANNELS 6 Xposition Yposition Zposition Zrotation Yrotation Xrotation
  JOINT abdomen
  {
    OFFSET 0.0 20.6881 -0.73152
    CHANNELS 3 Zrotation Xrotation Yrotation
    JOINT chest
    {
      OFFSET 0.0 11.7043 -0.48768
      CHANNELS 3 Zrotation Xrotation Yrotation
      JOINT neck
      {
        OFFSET 0.0 22.1894 -2.19456
        CHANNELS 3 Zrotation Xrotation Yrotation
        JOINT head
        {
          OFFSET -0.24384 7.07133 1.2192
          CHANNELS 3 Zrotation Xrotation Yrotation
          JOINT leftEye
          {
            OFFSET 4.14528 8.04674 8.04672
            CHANNELS 3 Zrotation Xrotation Yrotation
            End Site
            {
              OFFSET 1.0 0.0 0.0
            }
          }
          JOINT rightEye
          {
            OFFSET -3.6576 8.04674 8.04672
            CHANNELS 3 Zrotation Xrotation Yrotation
            End Site
            {
              OFFSET 1.0 0.0 0.0
            }
          }
        }
      }
      JOINT rCollar
      {
        OFFSET -2.68224 19.2634 -4.8768
        CHANNELS 3 Zrotation Xrotation Yrotation
        JOINT rShldr
        {
          OFFSET -8.77824 -1.95073 1.46304
          CHANNELS 3 Zrotation Xrotation Yrotation
          JOINT rForeArm
          {
            OFFSET -28.1742 -1.7115 0.48768
            CHANNELS 3 Zrotation Xrotation Yrotation
            JOINT rHand
            {
              OFFSET -22.5879 0.773209 7.07136
              CHANNELS 3 Zrotation Xrotation Yrotation
              JOINT rThumb1
              {
                OFFSET -1.2192 -0.487915 3.41376
                CHANNELS 3 Zrotation Xrotation Yrotation
                JOINT rThumb2
                {
                  OFFSET -3.37035 -0.52449 3.41376
                  CHANNELS 3 Zrotation Xrotation Yrotation
                  End Site
                  {
                    OFFSET -1.78271 -1.18214 1.43049
                  }
                }
              }
              JOINT rIndex1
              {
                OFFSET -7.75947 0.938293 5.60832
                CHANNELS 3 Zrotation Xrotation Yrotation
                JOINT rIndex2
                {
                  OFFSET -2.54057 -0.884171 1.56538
                  CHANNELS 3 Zrotation Xrotation Yrotation
                  End Site
                  {
                    OFFSET -1.62519 -0.234802 1.16502
                  }
                }
              }
              JOINT rMid1
              {
                OFFSET -8.24714 1.18213 3.41376
                CHANNELS 3 Zrotation Xrotation Yrotation
                JOINT rMid2
                {
                  OFFSET -3.10165 -0.590103 1.0647
                  CHANNELS 3 Zrotation Xrotation Yrotation
                  End Site
                  {
                    OFFSET -2.48547 -0.328903 0.83742
                  }
                }
              }
              JOINT rRing1
              {
                OFFSET -8.82822 0.546677 1.51678
                CHANNELS 3 Zrotation Xrotation Yrotation
                JOINT rRing2
                {
                  OFFSET -2.60934 -0.819778 -0.0198488
                  CHANNELS 3 Zrotation Xrotation Yrotation
                  End Site
                  {
                    OFFSET -2.33842 -0.294052 0.168128
                  }
                }
              }
              JOINT rPinky1
              {
                OFFSET -8.27202 -0.0477905 -0.4584
                CHANNELS 3 Zrotation Xrotation Yrotation
                JOINT rPinky2
                {
                  OFFSET -1.82734 -0.647385 -0.700984
                  CHANNELS 3 Zrotation Xrotation Yrotation
                  End Site
                  {
                    OFFSET -1.69225 -0.51767 -0.607171
                  }
                }
              }
            }
          }
        }
      }
      JOINT lCollar
      {
        OFFSET 2.68224 19.2634 -4.8768
        CHANNELS 3 Zrotation Xrotation Yrotation
        JOINT lShldr
        {
          OFFSET 8.77824 -1.95073 1.46304
          CHANNELS 3 Zrotation Xrotation Yrotation
          JOINT lForeArm
          {
            OFFSET 28.1742 -1.7115 0.48768
            CHANNELS 3 Zrotation Xrotation Yrotation
            JOINT lHand
            {
              OFFSET 22.5879 0.773209 7.07136
              CHANNELS 3 Zrotation Xrotation Yrotation
              JOINT lThumb1
              {
                OFFSET 1.2192 -0.487915 3.41376
                CHANNELS 3 Zrotation Xrotation Yrotation
                JOINT lThumb2
                {
                  OFFSET 3.37035 -0.52449 3.41376
                  CHANNELS 3 Zrotation Xrotation Yrotation
                  End Site
                  {
                    OFFSET 1.78271 -1.18214 1.43049
                  }
                }
              }
              JOINT lIndex1
              {
                OFFSET 7.75947 0.938293 5.60832
                CHANNELS 3 Zrotation Xrotation Yrotation
                JOINT lIndex2
                {
                  OFFSET 2.54057 -0.884171 1.56538
                  CHANNELS 3 Zrotation Xrotation Yrotation
                  End Site
                  {
                    OFFSET 1.62519 -0.234802 1.16502
                  }
                }
              }
              JOINT lMid1
              {
                OFFSET 8.24714 1.18213 3.41376
                CHANNELS 3 Zrotation Xrotation Yrotation
                JOINT lMid2
                {
                  OFFSET 3.10165 -0.590103 1.0647
                  CHANNELS 3 Zrotation Xrotation Yrotation
                  End Site
                  {
                    OFFSET 2.48547 -0.328903 0.83742
                  }
                }
              }
              JOINT lRing1
              {
                OFFSET 8.82822 0.546677 1.51678
                CHANNELS 3 Zrotation Xrotation Yrotation
                JOINT lRing2
                {
                  OFFSET 2.60934 -0.819778 -0.0198488
                  CHANNELS 3 Zrotation Xrotation Yrotation
                  End Site
                  {
                    OFFSET 2.33842 -0.294052 0.168128
                  }
                }
              }
              JOINT lPinky1
              {
                OFFSET 8.27202 -0.0477905 -0.4584
                CHANNELS 3 Zrotation Xrotation Yrotation
                JOINT lPinky2
                {
                  OFFSET 1.82734 -0.647385 -0.700984
                  CHANNELS 3 Zrotation Xrotation Yrotation
                  End Site
                  {
                    OFFSET 1.69225 -0.51767 -0.607171
                  }
                }
              }
            }
          }
        }
      }
    }
  }
  JOINT rButtock
  {
    OFFSET -8.77824 4.35084 1.2192
    CHANNELS 3 Zrotation Xrotation Yrotation
    JOINT rThigh
    {
      OFFSET 0.0 -1.70687 -2.19456
      CHANNELS 3 Zrotation Xrotation Yrotation
      JOINT rShin
      {
        OFFSET 0.0 -36.8199 0.73152
        CHANNELS 3 Zrotation Xrotation Yrotation
        JOINT rFoot
        {
          OFFSET 0.73152 -45.1104 -5.12064
          CHANNELS 3 Zrotation Xrotation Yrotation
          End Site
          {
            OFFSET -1.1221 -3.69964 12.103
          }
        }
      }
    }
  }
  JOINT lButtock
  {
    OFFSET 8.77824 4.35084 1.2192
    CHANNELS 3 Zrotation Xrotation Yrotation
    JOINT lThigh
    {
      OFFSET 0.0 -1.70687 -2.19456
      CHANNELS 3 Zrotation Xrotation Yrotation
      JOINT lShin
      {
        OFFSET 0.0 -36.8199 0.73152
        CHANNELS 3 Zrotation Xrotation Yrotation
        JOINT lFoot
        {
          OFFSET -0.73152 -45.1104 -5.12064
          CHANNELS 3 Zrotation Xrotation Yrotation
          End Site
          {
            OFFSET 1.1221 -3.69964 12.103
          }
        }
      }
    }
  }
}
MOTION
Frames: 6
Frame Time: 0.00833333
-0.8373200000000001 80.9567 44.3596 -5.8531 -1.9181 1.1422 8.21654 3.58908 3.27373 0.814351 -4.26992 0.97341 3.50966 -0.944704 1.07022 -1.78712 -10.0585 0.934456 -0.0 0.0 0.0 -0.0 0.0 0.0 4.91654e-14 -4.71119e-14 6.95749e-16 74.3567 15.0625 7.87746 -12.3693 -5.7083 22.3334 -0.0725219 -7.68216 -1.08622 -9.87657e-10 3.61096e-10 2.30122e-10 -1.70729e-09 6.23578e-10 3.95449e-10 -9.87658e-10 3.61099e-10 2.30115e-10 7.73091 5.47488 0.417314 -9.87658e-10 3.61099e-10 2.30119e-10 2.90554 0.965183 0.102902 -9.87655e-10 3.61098e-10 2.30116e-10 10.2786 0.731801 0.0259123 -9.87664e-10 3.61098e-10 2.3013e-10 2.22167 -0.733487 -0.20892 4.90313e-14 -4.71126e-14 5.65293e-16 -80.0281 18.7251 8.19652 19.5412 -12.4447 -37.5777 0.109649 -9.40776 1.33428 -1.3128e-09 -1.57653e-09 -6.03325e-11 -2.26904e-09 -2.72371e-09 -1.1397e-10 -1.31281e-09 -1.57653e-09 -6.032e-11 -7.73091 5.47488 -0.417314 -1.3128e-09 -1.57653e-09 -6.03299e-11 -2.90554 0.965183 -0.102902 -1.31281e-09 -1.57653e-09 -6.0331e-11 -10.2786 0.731801 -0.0259123 -1.3128e-09 -1.57653e-09 -6.03385e-11 -2.22167 -0.733487 0.20892 -2.03217e-16 0.0 -3.88251e-19 6.94926 18.4995 0.978018 -0.00535955 9.09648 0.25198 -5.72735 -7.40705 -25.8385 2.03217e-16 0.0 3.88251e-19 11.5525 -39.765 4.15178 0.141063 24.2776 -0.105567 2.28249 -2.63404 13.5033
-0.6403800000000004 80.8178 45.5972 -5.6324 -2.3932 0.8546 7.87682 3.59378 3.30639 0.957805 -4.28062 0.981761 3.58703 -0.974535 1.11239 -1.81203 -9.70574 0.996954 -0.0 0.0 0.0 -0.0 0.0 0.0 1.3415e-13 -1.89592e-14 -3.75027e-14 74.8619 13.5362 7.54944 -12.0124 -5.45734 21.6344 -0.0557304 -6.75054 -0.953117 -1.82591e-09 1.32502e-09 -3.04208e-11 -3.15453e-09 2.28796e-09 -5.69805e-11 -1.82591e-09 1.32503e-09 -3.04298e-11 7.73091 5.47488 0.417314 -1.82591e-09 1.32503e-09 -3.04267e-11 2.90554 0.965183 0.102902 -1.82591e-09 1.32503e-09 -3.04299e-11 10.2786 0.731801 0.0259123 -1.82591e-09 1.32503e-09 -3.04117e-11 2.22167 -0.733487 -0.20892 1.33984e-13 -1.89567e-14 -3.76309e-14 -80.2321 18.396 8.30724 19.2359 -12.0778 -36.8608 0.115227 -9.63817 1.3676 -1.90032e-09 -1.63962e-09 -2.77255e-10 -3.28117e-09 -2.82695e-09 -4.93426e-10 -1.90033e-09 -1.63962e-09 -2.77246e-10 -7.73091 5.47488 -0.417314 -1.90032e-09 -1.63962e-09 -2.77256e-10 -2.90554 0.965183 -0.102902 -1.90032e-09 -1.63962e-09 -2.77255e-10 -10.2786 0.731801 -0.0259123 -1.90031e-09 -1.63962e-09 -2.77264e-10 -2.22167 -0.733487 0.20892 -2.03217e-16 0.0 -3.88251e-19 6.41771 18.832 1.20332 -0.0105636 10.4041 0.278698 -5.67581 -7.31964 -25.6484 2.03217e-16 0.0 3.88251e-19 11.0577 -39.1319 3.87872 0.150223 24.948 -0.101481 1.94377 -1.69685 12.5035
-0.42203999999999997 80.7404 46.844030000000004 -5.342 -2.9429 0.6144 7.46683 3.50631 3.39038 1.08402 -4.29216 1.00251 3.64381 -1.0158 1.15108 -1.80418 -9.3194 1.06051 -0.0 0.0 0.0 -0.0 0.0 0.0 1.68965e-13 -1.09623e-15 -7.14631e-14 75.3364 12.1272 7.17599 -11.6733 -5.22221 20.9793 -0.0425454 -5.87674 -0.828859 -2.07766e-09 1.58107e-09 -2.43656e-10 -3.58873e-09 2.72902e-09 -4.26725e-10 -2.07767e-09 1.58107e-09 -2.43665e-10 7.73091 5.47488 0.417314 -2.07767e-09 1.58107e-09 -2.43662e-10 2.90554 0.965183 0.102902 -2.07767e-09 1.58107e-09 -2.43666e-10 10.2786 0.731801 0.0259123 -2.07767e-09 1.58107e-09 -2.43646e-10 2.22167 -0.733487 -0.20892 1.68781e-13 -1.09137e-15 -7.16122e-14 -80.3937 18.1465 8.38169 18.8995 -11.6876 -36.0707 0.117897 -9.74459 1.38301 -2.00539e-09 -1.36471e-09 -4.33293e-10 -3.46055e-09 -2.34793e-09 -7.6434e-10 -2.0054e-09 -1.36471e-09 -4.33287e-10 -7.73091 5.47488 -0.417314 -2.00539e-09 -1.36471e-09 -4.33297e-10 -2.90554 0.965183 -0.102902 -2.00539e-09 -1.36471e-09 -4.33293e-10 -10.2786 0.731801 -0.0259123 -2.00538e-09 -1.36471e-09 -4.33303e-10 -2.22167 -0.733487 0.20892 -2.03217e-16 0.0 -3.88251e-19 5.77313 18.9687 1.42327 -0.0176288 11.8413 0.304228 -5.53162 -7.05689 -25.3965 2.03217e-16 0.0 3.88251e-19 10.5384 -38.609 3.61305 0.159301 25.5755 -0.0958007 1.60791 -0.560657 11.6311
-0.17767 80.7228 48.092 -4.9672 -3.5467 0.4462 6.95095 3.27237 3.56581 1.18799 -4.29716 1.04599 3.66254 -1.07481 1.18282 -1.71816 -8.86153 1.12645 -0.0 0.0 0.0 -0.0 0.0 0.0 1.2043e-13 1.80736e-15 -1.02843e-13 75.7856 10.8227 6.74737 -11.3494 -5.00149 20.3602 -0.0317685 -5.0585 -0.712874 -1.3538e-09 6.64511e-10 -4.16596e-10 -2.33768e-09 1.14348e-09 -7.25485e-10 -1.3538e-09 6.64514e-10 -4.16603e-10 7.73091 5.47488 0.417314 -1.3538e-09 6.64515e-10 -4.166e-10 2.90554 0.965183 0.102902 -1.3538e-09 6.64515e-10 -4.16605e-10 10.2786 0.731801 0.0259123 -1.3538e-09 6.64513e-10 -4.16586e-10 2.22167 -0.733487 -0.20892 1.20245e-13 1.81314e-15 -1.03063e-13 -80.5024 18.034 8.42362 18.5277 -11.2673 -35.2092 0.118353 -9.74476 1.3831 -1.28616e-09 -4.62984e-10 -4.96954e-10 -2.21679e-09 -7.88265e-10 -8.70033e-10 -1.28617e-09 -4.62989e-10 -4.96945e-10 -7.73091 5.47488 -0.417314 -1.28615e-09 -4.62982e-10 -4.96954e-10 -2.90554 0.965183 -0.102902 -1.28616e-09 -4.62982e-10 -4.9695e-10 -10.2786 0.731801 -0.0259123 -1.28615e-09 -4.62982e-10 -4.9696e-10 -2.22167 -0.733487 0.20892 -2.03217e-16 0.0 -3.88251e-19 4.95923 18.8926 1.6718 -0.0260052 13.3882 0.329524 -5.29678 -6.62194 -25.075 2.03217e-16 0.0 3.88251e-19 9.9617 -38.2519 3.29298 0.168017 26.1249 -0.0873032 1.23635 0.990382 10.9313
0.09299999999999997 80.7505 49.327200000000005 -4.5101 -4.1497 0.3594 6.34287 2.94262 3.81603 1.28108 -4.29986 1.10866 3.64785 -1.14305 1.20487 -1.56722 -8.35484 1.18773 -0.0 0.0 0.0 -0.0 0.0 0.0 1.78493e-14 -2.74934e-15 -1.35056e-13 76.2115 9.58373 6.24644 -11.0508 -4.8045 19.7885 -0.0225403 -4.28544 -0.603462 2.23415e-11 -1.03158e-09 -5.78014e-10 4.00987e-11 -1.78936e-09 -1.00334e-09 2.23416e-11 -1.03158e-09 -5.78019e-10 7.73091 5.47488 0.417314 2.23399e-11 -1.03158e-09 -5.78015e-10 2.90554 0.965183 0.102902 2.23455e-11 -1.03158e-09 -5.7802e-10 10.2786 0.731801 0.0259123 2.23361e-11 -1.03158e-09 -5.78006e-10 2.22167 -0.733487 -0.20892 1.76753e-14 -2.7433e-15 -1.35382e-13 -80.5677 18.0716 8.43727 18.1147 -10.8099 -34.2764 0.117661 -9.68755 1.37492 5.27423e-12 9.13663e-10 -5.08755e-10 1.5063e-11 1.59068e-09 -8.8226e-10 5.25929e-12 9.13657e-10 -5.08742e-10 -7.73091 5.47488 -0.417314 5.27572e-12 9.13666e-10 -5.0875e-10 -2.90554 0.965183 -0.102902 5.26562e-12 9.13666e-10 -5.08744e-10 -10.2786 0.731801 -0.0259123 5.27994e-12 9.13664e-10 -5.08756e-10 -2.22167 -0.733487 0.20892 -2.03217e-16 0.0 -3.88251e-19 4.00923 18.655 1.94111 -0.0361231 15.0552 0.355658 -4.99049 -6.03806 -24.7015 2.03217e-16 0.0 3.88251e-19 9.31616 -37.9843 2.88866 0.176733 26.6419 -0.07709 0.841808 2.88584 10.3393
0.3859300000000001 80.8092 50.544000000000004 -3.9766 -4.6992 0.3215 5.71623 2.60143 4.06323 1.36608 -4.31361 1.16989 3.63557 -1.21269 1.22711 -1.44403 -7.86782 1.24668 -0.0 0.0 0.0 -0.0 0.0 0.0 -8.61004e-14 -9.88392e-15 -1.61811e-13 76.5952 8.46715 5.70247 -10.7808 -4.63023 19.2731 -0.0153423 -3.5705 -0.502448 1.41773e-09 -2.75639e-09 -6.90553e-10 2.45103e-09 -4.77158e-09 -1.19639e-09 1.41773e-09 -2.75639e-09 -6.90554e-10 7.73091 5.47488 0.417314 1.41773e-09 -2.75639e-09 -6.9055e-10 2.90554 0.965183 0.102902 1.41773e-09 -2.75639e-09 -6.90555e-10 10.2786 0.731801 0.0259123 1.41772e-09 -2.75639e-09 -6.90546e-10 2.22167 -0.733487 -0.20892 -8.62543e-14 -9.87777e-15 -1.62229e-13 -80.608 18.1204 8.41128 17.6626 -10.3257 -33.2713 0.113121 -9.49637 1.34729 1.28882e-09 2.22932e-09 -5.09171e-10 2.23295e-09 3.86359e-09 -8.74729e-10 1.2888e-09 2.22931e-09 -5.09153e-10 -7.73091 5.47488 -0.417314 1.28882e-09 2.22932e-09 -5.09161e-10 -2.90554 0.965183 -0.102902 1.28881e-09 2.22932e-09 -5.09154e-10 -10.2786 0.731801 -0.0259123 1.28882e-09 2.22932e-09 -5.09167e-10 -2.22167 -0.733487 0.20892 -2.03217e-16 0.0 -3.88251e-19 3.0342 18.2556 2.15776 -0.0493272 16.8789 0.380218 -4.60898 -5.27375 -24.2878 2.03217e-16 0.0 3.88251e-19 8.67722 -37.7382 2.55614 0.185656 27.1711 -0.0670015 0.50203 4.69004 9.80762
